<?xml version="1.0"?><svg width="2000.7007874015749" height="2000.5196850393702" xmlns="http://www.w3.org/2000/svg">
 <title>Electrical Plug</title>
 <defs>
  <linearGradient id="linearGradient3656">
   <stop offset="0" id="stop3658" stop-color="#ffffff"/>
   <stop offset="1" id="stop3660" stop-opacity="0" stop-color="#ffffff"/>
  </linearGradient>
 </defs>
 <metadata id="metadata7">image/svg+xmlSergio Luiz Araujo Silvaoutletelectricityenergypowerhomeoffice</metadata>
 <g>
  <title>Layer 1</title>
  <path id="path2821" d="m1600.115845,49.375401c-32.015259,-40.36546 -90.35022,-47.09531 -130.715454,-15.079872l-296.658691,235.289219l-145.050293,-182.883957c-10.11377,-12.806023 -30.995361,-15.211517 -43.762207,-5.048401l-282.637756,224.170547c-240.05661,190.395599 -307.147522,516.860474 -178.522705,781.201599l-467.521179,370.807007c-60.539958,48.015015 -70.613918,135.342285 -22.598339,195.881836c48.015148,60.538818 135.343166,70.613281 195.881344,22.598145l467.52095,-370.807739c228.109375,185.435547 561.274292,194.442627 801.331299,4.04541l282.637329,-224.169922c12.805908,-10.114258 15.211304,-30.99646 5.048462,-43.763062l-145.051025,-182.883728l296.657837,-235.289124c40.366211,-32.015564 47.096069,-90.349182 15.0802,-130.71582c-32.015259,-40.365387 -90.349609,-47.094238 -130.71521,-15.079254l-296.657837,235.288788l-236.003784,-297.557739l296.656982,-235.289291c40.366211,-32.014664 47.095947,-90.349953 15.080688,-130.715191l-0.00061,0.000549z" stroke-width="0.518634" fill="#ff007f"/>
 </g>
</svg>