<svg xmlns:rdf="http://www.w3.org/1999/02/22-rdf-syntax-ns#" xmlns="http://www.w3.org/2000/svg" height="500" width="500" version="1.1" xmlns:cc="http://creativecommons.org/ns#" xmlns:xlink="http://www.w3.org/1999/xlink" viewBox="0 0 500.00001 500.00001" xmlns:dc="http://purl.org/dc/elements/1.1/">
	<g transform="translate(0 -552.36)">
		<g fill="none" transform="translate(208.36 574.58)">
			<g fill="#fff" transform="matrix(22.745 0 0 22.745 -2255.4 -33.206)">
				<g fill="#fff" transform="translate(90,4)">
					<path d="m318.12 589.58c-0.4162 0-0.75781 0.38887-0.75781 0.86328v0.39063l10.389 8.1445c0.3795 0.29686 0.99695 0.29205 1.373-0.01l10.221-8.1953v-0.33008c0-0.47435-0.34117-0.86328-0.75781-0.86328h-20.467zm21.225 2.918-10.221 8.1953c-0.3761 0.30183-0.99355 0.30518-1.373 0.008l-10.389-8.1406v11.107c0 0.47435 0.34167 0.86133 0.75781 0.86133h20.467c0.41664 0 0.75781-0.38691 0.75781-0.86133v-11.17z" transform="translate(-317.36 -589.58)"/>
					<path d="m21.225 0h-20.467c-0.41613 0-0.758 0.38812-0.758 0.86247v0.40353l10.388 8.1426c0.3795 0.29686 0.99748 0.29322 1.3736-0.0086l10.221-8.196v-0.34149c0-0.47445-0.342-0.8625-0.758-0.8625z"/>
				</g>
			</g>
		</g>
	</g>
</svg>
